
<svg width="24px" height="24px" viewBox="0 0 24 24" version="1.1" xmlns="http://www.w3.org/2000/svg" xmlns:xlink="http://www.w3.org/1999/xlink">
    <!-- Generator: Sketch 63 (92445) - https://sketch.com -->
    <title>icon_google</title>
    <desc>Created with Sketch.</desc>
    <g id="V2.0" stroke="none" stroke-width="1" fill="none" fill-rule="evenodd">
        <g id="服务中心-开户gg" transform="translate(-526.000000, -115.000000)">
            <g id="编组-6" transform="translate(366.000000, 115.000000)">
                <g id="编组-7" transform="translate(160.000000, 0.000000)">
                    <g id="Google">
                        <rect id="矩形备份" stroke="#979797" fill="#D8D8D8" opacity="0" x="0" y="0" width="24" height="24"></rect>
                        <path d="M21.7357143,10.0421428 L20.9671429,10.0421428 L20.9671429,10.005 L12.3714286,10.005 L12.3714286,13.8257143 L17.77,13.8257143 C16.931551,16.2067586 14.6349527,17.7597216 12.1129387,17.6510269 C9.59092479,17.5423322 7.4364545,15.7975355 6.80597225,13.3531826 C6.17549,10.9088297 7.21723061,8.3396208 9.37202411,7.02461744 C11.5268176,5.70961409 14.2880432,5.95799118 16.1735714,7.63642858 L18.8742857,4.93571427 C15.4362615,1.74641081 10.1885928,1.53331733 6.5032968,4.43336222 C2.81800074,7.33340711 1.79117635,12.4840446 4.08263457,16.5756074 C6.3740928,20.6671703 11.3022967,22.4827255 15.7005092,20.855644 C20.0987217,19.2285625 22.6588045,14.642779 21.7357143,10.045 L21.7357143,10.0421428 Z" id="路径" fill="#FFC107" fill-rule="nonzero"></path>
                        <path d="M3.92142857,7.46785714 L7.06428573,9.76928571 C7.75732292,8.03939439 9.25035893,6.7561171 11.0647407,6.33086026 C12.8791224,5.90560343 14.786889,6.39179679 16.1764286,7.63357142 L18.8771428,4.93285714 C16.7041081,2.90015053 13.7064506,1.99890056 10.7727481,2.49625941 C7.83904567,2.99361825 5.30593301,4.83251527 3.9242857,7.46785714 L3.92142857,7.46785714 Z" id="路径" fill="#FF3D00" fill-rule="nonzero"></path>
                        <path d="M12.3714286,21.4635714 C14.740223,21.4634358 17.0237111,20.5793324 18.775,18.9842857 L15.8185714,16.4842857 C14.3673825,17.584378 12.4787588,17.9269252 10.7336604,17.4065563 C8.98856202,16.8861873 7.59597952,15.5652209 6.9842857,13.85 L3.86928573,16.2492857 C5.49692776,19.4472415 8.78095225,21.4618112 12.3692857,21.4635714 L12.3714286,21.4635714 Z" id="路径" fill="#4CAF50" fill-rule="nonzero"></path>
                        <path d="M21.7357143,10.0421428 L20.9671429,10.0421428 L20.9671429,10.0028571 L12.3714286,10.0028571 L12.3714286,13.8235714 L17.77,13.8235714 C17.3926214,14.8818362 16.7137642,15.8065122 15.8171428,16.4835714 L18.7735714,18.9835714 C20.8062679,17.2000912 21.9562738,14.6161015 21.9207143,11.9121429 C21.9204122,11.2839494 21.8579653,10.6573266 21.7342857,10.0414286 L21.7357143,10.0421428 Z" id="路径" fill="#1976D2" fill-rule="nonzero"></path>
                    </g>
                </g>
            </g>
        </g>
    </g>
</svg>