<svg width="24" height="24" viewBox="0 0 24 24" fill="none" xmlns="http://www.w3.org/2000/svg">
<g clip-path="url(#clip0_546_10413)">
<path d="M24 0H0V24H24V0Z" fill="white" fill-opacity="0.01"/>
<path opacity="0.12" d="M12 24C15.3137 24 18.3137 22.6568 20.4853 20.4853C22.6568 18.3137 24 15.3137 24 12C24 8.68632 22.6568 5.68632 20.4853 3.51472C18.3137 1.34315 15.3137 0 12 0C8.68632 0 5.68632 1.34315 3.51472 3.51472C1.34315 5.68632 0 8.68632 0 12C0 15.3137 1.34315 18.3137 3.51472 20.4853C5.68632 22.6568 8.68632 24 12 24Z" fill="#22AC35"/>
<path d="M9 12.0002L11.4 14.4002L15.6 10.2002" stroke="#22AC35" stroke-width="2" stroke-linecap="round" stroke-linejoin="round"/>
</g>
<defs>
<clipPath id="clip0_546_10413">
<rect width="24" height="24" fill="white"/>
</clipPath>
</defs>
</svg>
