<?xml version="1.0" encoding="UTF-8"?>
<svg width="24px" height="24px" viewBox="0 0 24 24" version="1.1" xmlns="http://www.w3.org/2000/svg" xmlns:xlink="http://www.w3.org/1999/xlink">
    <title>编组 50</title>
    <defs>
        <linearGradient x1="13.8784354%" y1="55.9337491%" x2="89.143574%" y2="58.6936324%" id="linearGradient-1">
            <stop stop-color="#0064E1" offset="0%"></stop>
            <stop stop-color="#0064E1" offset="40%"></stop>
            <stop stop-color="#0073EE" offset="83%"></stop>
            <stop stop-color="#0082FB" offset="100%"></stop>
        </linearGradient>
        <linearGradient x1="54.3150272%" y1="82.782443%" x2="54.3150272%" y2="39.3067715%" id="linearGradient-2">
            <stop stop-color="#0082FB" offset="0%"></stop>
            <stop stop-color="#0064E0" offset="100%"></stop>
        </linearGradient>
    </defs>
    <g id="账号-账号列表-开户" stroke="none" stroke-width="1" fill="none" fill-rule="evenodd">
        <g id="账号列表-其他媒体" transform="translate(-132.000000, -161.000000)">
            <g id="内容" transform="translate(90.000000, 80.000000)">
                <g id="编组-13" transform="translate(0.000000, 61.000000)">
                    <g id="tab" transform="translate(0.000000, 17.000000)">
                        <g id="编组-50" transform="translate(42.000000, 3.000000)">
                            <rect id="矩形" stroke="#979797" fill="#D8D8D8" opacity="0" x="0" y="0" width="24" height="24"></rect>
                            <g id="编组-25" transform="translate(1.000000, 5.000000)" fill-rule="nonzero">
                                <path d="M2.37263889,9.62194444 C2.37263889,10.4606944 2.55673611,11.1046528 2.79736111,11.4942361 C3.11284722,12.0045139 3.58340278,12.2206944 4.063125,12.2206944 C4.681875,12.2206944 5.24791667,12.0671528 6.33875,10.5584722 C7.21263889,9.34923611 8.24236111,7.651875 8.93520833,6.58777778 L10.1085417,4.785 C10.9236111,3.53298611 11.8670139,2.14118056 12.9486806,1.19777778 C13.8317361,0.427777778 14.7843056,-2.77629771e-13 15.7429861,-2.77629771e-13 C17.3525,-2.77629771e-13 18.885625,0.932708333 20.0589583,2.68201389 C21.3430556,4.59784722 21.9663889,7.01097222 21.9663889,9.50125 C21.9663889,10.9816667 21.6745833,12.0694444 21.1780556,12.9288194 C20.6983333,13.7599306 19.7633333,14.5902778 18.1904861,14.5902778 L18.1904861,12.2206944 C19.5372222,12.2206944 19.8733333,10.9831944 19.8733333,9.56694444 C19.8733333,7.54875 19.4027778,5.30902778 18.3661806,3.70868056 C17.6305556,2.57354167 16.6772222,1.87993056 15.6284028,1.87993056 C14.4940278,1.87993056 13.5811806,2.73548611 12.5552778,4.26097222 C12.0098611,5.07145833 11.4499306,6.05916667 10.82125,7.17368056 L10.1291667,8.39972222 C8.73888889,10.8647917 8.38673611,11.42625 7.69159722,12.3528472 C6.47319444,13.9753472 5.43277778,14.5902778 4.063125,14.5902778 C2.43833333,14.5902778 1.41090278,13.8867361 0.774583333,12.8264583 C0.255138889,11.9625 2.11682523e-14,10.8288889 2.11682523e-14,9.53715278 L2.37263889,9.62194444 Z" id="Logo0" fill="#0081FB"></path>
                                <path d="M1.87076389,2.84930556 C2.95854167,1.17256944 4.52833333,-2.77629771e-13 6.32881944,-2.77629771e-13 C7.37152778,-2.77629771e-13 8.408125,0.308611111 9.49055556,1.19243056 C10.6745833,2.15875 11.9365278,3.74993056 13.5109028,6.37236111 L14.0754167,7.31347222 C15.4381944,9.58375 16.2135417,10.7517361 16.6672917,11.3025 C17.2509028,12.0098611 17.6595833,12.2206944 18.1904861,12.2206944 C19.5372222,12.2206944 19.8733333,10.9831944 19.8733333,9.56694444 L21.9663889,9.50125 C21.9663889,10.9816667 21.6745833,12.0694444 21.1780556,12.9288194 C20.6983333,13.7599306 19.7633333,14.5902778 18.1904861,14.5902778 C17.2127083,14.5902778 16.3464583,14.3779167 15.3885417,13.4742361 C14.6521528,12.780625 13.79125,11.5484722 13.1289583,10.4408333 L11.1588889,7.15 C10.1704167,5.49847222 9.26368056,4.26708333 8.73888889,3.70944444 C8.174375,3.10979167 7.44868056,2.385625 6.290625,2.385625 C5.35333333,2.385625 4.55736111,3.04333333 3.89125,4.049375 L1.87076389,2.84930556 Z" id="Logo1" fill="url(#linearGradient-1)"></path>
                                <path d="M6.290625,2.385625 C5.35333333,2.385625 4.55736111,3.04333333 3.89125,4.049375 C2.949375,5.47097222 2.37263889,7.58847222 2.37263889,9.62194444 C2.37263889,10.4606944 2.55673611,11.1046528 2.79736111,11.4942361 L0.774583333,12.8264583 C0.255138889,11.9625 1.46549439e-14,10.8288889 1.46549439e-14,9.53715278 C1.46549439e-14,7.18819444 0.644722222,4.73993056 1.87076389,2.84930556 C2.95854167,1.17256944 4.52833333,1.34336986e-13 6.32881944,1.34336986e-13 L6.290625,2.385625 Z" id="Logo2" fill="url(#linearGradient-2)"></path>
                            </g>
                        </g>
                    </g>
                </g>
            </g>
        </g>
    </g>
</svg>