<?xml version="1.0" encoding="UTF-8"?>
<svg width="24px" height="24px" viewBox="0 0 24 24" version="1.1" xmlns="http://www.w3.org/2000/svg" xmlns:xlink="http://www.w3.org/1999/xlink">
    <title>tiktok</title>
    <g id="企业资产-账号资产" stroke="none" stroke-width="1" fill="none" fill-rule="evenodd">
        <g id="企业资产-账号-媒体账号-绑定GG账号" transform="translate(-638.000000, -173.000000)">
            <g id="tab" transform="translate(366.000000, 173.000000)">
                <g id="编组-7备份" transform="translate(143.000000, 0.000000)">
                    <g id="tiktok-icon-2" transform="translate(129.000000, 0.000000)">
                        <rect id="矩形备份" stroke="#979797" fill="#D8D8D8" opacity="0" x="0" y="0" width="24" height="24"></rect>
                        <g id="编组" transform="translate(3.000000, 2.000000)" fill="#25F4EE" fill-rule="nonzero">
                            <path d="M7.00762407,7.99692408 L7.00762407,7.20562775 C6.73294674,7.16213911 6.45551556,7.13831214 6.17744538,7.13431431 C3.48531373,7.12858142 1.10190619,8.87316893 0.293458513,11.4410207 C-0.514989159,14.0088725 0.439289794,16.8041816 2.64902881,18.3416959 C0.993697736,16.5701119 0.534069933,13.9911363 1.47545495,11.7567627 C2.41683996,9.52238922 4.58343235,8.04989126 7.00744447,7.99701388 L7.00762407,7.99692408 Z" id="路径"></path>
                            <path d="M7.15686766,16.9602498 C8.6620548,16.9581844 9.89928595,15.7724073 9.96519738,14.2686569 L9.96519738,0.849664765 L12.4166715,0.849664765 C12.3666461,0.569262021 12.3427771,0.284818371 12.3453722,2.34561315e-15 L8.99224053,2.34561315e-15 L8.99224053,13.4060613 C8.93647623,14.9174445 7.69628176,16.1146259 6.1839108,16.1170504 C5.73195669,16.1132197 5.28737722,16.0020825 4.88678467,15.7927914 C5.4134013,16.5223921 6.25707519,16.9562767 7.15686766,16.9602498 Z M16.99563,5.402582 L16.99563,4.65672325 C16.0933978,4.65707849 15.2111728,4.39084899 14.4597462,3.89146822 C15.1184581,4.65725643 16.0086341,5.18770548 16.99563,5.402582 L16.99563,5.402582 Z" id="形状"></path>
                        </g>
                        <path d="M17.4597462,5.89146822 C16.7194746,5.0485469 16.3114048,3.96494653 16.3117738,2.84310954 L15.4166715,2.84310954 C15.6503196,4.09662423 16.3891045,5.19892438 17.4597462,5.89146822 L17.4597462,5.89146822 Z M9.17744538,12.4874601 C7.88575404,12.4940305 6.76431611,13.3789189 6.45751633,14.6336634 C6.15071654,15.8884078 6.73730701,17.1909293 7.88022944,17.7927914 C7.26098887,16.9377857 7.17354423,15.8077362 7.65387788,14.8676441 C8.13421154,13.9275519 9.10117214,13.3362437 10.1568677,13.3370351 C10.4383428,13.3407227 10.7178534,13.3845361 10.9869565,13.4671518 L10.9869565,10.0552925 C10.71214,10.0140924 10.4347484,9.99242678 10.1568677,9.99045865 L10.0076241,9.99045865 L10.0076241,12.5847109 C9.73708951,12.5121475 9.45742611,12.4793865 9.17744538,12.4874601 L9.17744538,12.4874601 Z" id="形状" fill="#FE2C55" fill-rule="nonzero"></path>
                        <path d="M19.99563,7.402582 L19.99563,9.99692408 C18.3253655,9.99367371 16.6984624,9.46497575 15.3453722,8.48572049 L15.3453722,15.3022553 C15.3381884,18.7036083 12.5787984,21.4572513 9.17744538,21.4572513 C7.91419876,21.4595254 6.6813722,21.069751 5.64902881,20.3416959 C7.3717498,22.1946337 10.0528775,22.8046282 12.4076744,21.8793835 C14.7624713,20.9541389 16.3112119,18.6821482 16.3117738,16.1520997 L16.3117738,9.35487133 C17.6694111,10.3276746 19.2983124,10.8494709 20.9684971,10.8465888 L20.9684971,7.50611862 C20.641511,7.50514467 20.3154971,7.4704489 19.99563,7.402582 Z" id="路径" fill="#FE2C55" fill-rule="nonzero"></path>
                        <path d="M15.3453722,15.3022553 L15.3453722,8.48572049 C16.7025673,9.45940278 18.3317599,9.98129229 20.0020955,9.977438 L20.0020955,7.38318572 C19.0153076,7.17479064 18.123015,6.65124005 17.4597462,5.89146822 C16.3891045,5.19892438 15.6503196,4.09662423 15.4166715,2.84310954 L12.9651974,2.84310954 L12.9651974,16.2688365 C12.9162706,17.4667236 12.1139633,18.5021614 10.9662367,18.8486453 C9.81851017,19.1951291 8.57727241,18.7766113 7.87367422,17.8059018 C6.73055143,17.2041323 6.14379616,15.9014944 6.450618,14.6466173 C6.75743985,13.3917401 7.87906387,12.506807 9.17089015,12.500391 C9.45246515,12.5029067 9.7321558,12.5466225 10.0010688,12.6301485 L10.0010688,10.0358064 C7.56347112,10.0771433 5.380537,11.5547991 4.43648493,13.802544 C3.49243285,16.0502889 3.96560135,18.6435069 5.64265318,20.4129951 C6.68513845,21.1170566 7.91971866,21.481779 9.17744538,21.4572513 C12.5787984,21.4572513 15.3381884,18.7036083 15.3453722,15.3022553 L15.3453722,15.3022553 Z" id="路径" fill="#000000" fill-rule="nonzero"></path>
                    </g>
                </g>
            </g>
        </g>
    </g>
</svg>